<?xml version="1.0" standalone="no"?>
<!DOCTYPE svg PUBLIC "-//W3C//DTD SVG 20010904//EN"
 "http://www.w3.org/TR/2001/REC-SVG-20010904/DTD/svg10.dtd">
<svg version="1.0" xmlns="http://www.w3.org/2000/svg"
 width="616.000000pt" height="616.000000pt" viewBox="0 0 616.000000 616.000000"
 preserveAspectRatio="xMidYMid meet">
<metadata>
Created by potrace 1.11, written by Peter Selinger 2001-2013
</metadata>
<g transform="translate(0.000000,616.000000) scale(0.100000,-0.100000)"
fill="#000000" stroke="none">
<path d="M1599 6156 c-2 -2 -31 -7 -64 -10 -388 -42 -709 -200 -934 -462 -64
-75 -203 -305 -211 -352 -1 -4 -8 -23 -17 -42 -31 -75 -78 -263 -89 -355 -2
-22 -8 -69 -13 -105 -11 -72 -8 -3857 2 -3930 3 -25 9 -54 11 -66 3 -12 8 -39
11 -60 18 -118 87 -304 146 -392 16 -24 29 -45 29 -48 0 -13 139 -144 187
-176 52 -36 203 -104 251 -113 196 -40 231 -43 427 -40 110 2 214 6 230 9 206
42 298 74 396 137 34 23 83 62 107 87 46 47 122 157 122 176 0 6 6 22 13 36
12 22 32 89 42 141 16 80 22 268 11 344 -3 22 -8 60 -11 84 -32 258 -208 586
-464 864 -38 42 -45 49 -131 147 -30 35 -64 73 -75 84 -11 12 -69 77 -130 146
-60 68 -117 132 -125 140 -8 9 -42 47 -75 84 -33 38 -65 74 -71 80 -5 6 -32
36 -60 67 -27 30 -77 87 -111 125 -34 38 -70 78 -80 90 -10 12 -45 51 -78 89
-33 37 -68 79 -78 94 -35 51 -87 169 -101 229 -16 70 -19 203 -5 259 5 21 12
47 14 58 18 79 106 202 192 269 111 87 191 118 324 122 88 3 117 0 168 -17
131 -45 188 -91 317 -259 49 -63 94 -121 101 -128 7 -7 13 -17 13 -21 0 -4 8
-16 18 -27 10 -10 58 -73 107 -139 50 -66 94 -125 100 -132 21 -25 33 -41 125
-163 52 -69 100 -131 107 -138 7 -7 20 -26 30 -42 9 -17 21 -30 25 -30 4 0 8
-7 8 -15 0 -8 4 -15 9 -15 5 0 19 -15 30 -33 11 -19 31 -45 43 -58 13 -14 35
-43 50 -64 32 -47 136 -182 193 -250 22 -26 48 -57 58 -69 104 -124 294 -313
377 -375 19 -14 37 -29 40 -32 3 -4 49 -36 102 -72 144 -98 351 -194 488 -227
25 -6 54 -13 65 -16 177 -46 525 -60 725 -30 19 3 53 8 75 12 22 3 81 17 130
30 50 14 98 26 107 29 77 18 336 147 387 192 9 8 34 28 56 44 143 108 290 289
400 494 72 133 161 386 191 540 2 11 7 34 10 50 4 17 8 39 9 50 2 11 8 49 15
85 6 36 14 83 16 105 2 22 7 69 11 105 9 93 10 590 0 685 -4 44 -10 103 -12
130 -2 28 -4 50 -5 50 -2 0 -12 68 -12 85 0 8 -4 31 -8 50 -5 19 -11 49 -13
65 -25 158 -92 383 -164 547 -43 98 -113 232 -124 236 -5 2 -9 10 -9 17 0 17
-143 209 -206 276 -69 73 -131 130 -194 178 -19 14 -37 29 -40 32 -16 21 -212
138 -305 184 -103 49 -236 105 -260 109 -5 1 -23 7 -40 13 -30 12 -199 58
-245 67 -14 3 -59 12 -100 20 -41 8 -95 17 -120 21 -25 3 -56 8 -70 10 -14 2
-52 7 -86 10 -33 3 -83 9 -110 12 -54 7 -2168 16 -2175 9z m2107 -619 c90 -23
226 -138 328 -277 26 -36 53 -73 61 -82 7 -9 19 -27 26 -40 6 -13 15 -25 18
-28 7 -5 289 -409 306 -438 6 -9 12 -19 16 -22 3 -3 25 -34 50 -70 24 -36 48
-69 52 -75 25 -32 137 -197 137 -201 0 -3 6 -11 13 -18 6 -8 19 -24 27 -36 8
-12 21 -28 28 -36 6 -7 12 -15 12 -18 0 -2 48 -74 108 -158 128 -183 144 -206
157 -227 6 -9 12 -18 15 -21 3 -3 19 -25 35 -50 17 -25 34 -49 38 -55 39 -46
222 -323 245 -370 66 -135 90 -270 66 -383 -34 -161 -144 -265 -325 -308 -38
-9 -211 -11 -249 -3 -19 4 -52 10 -74 13 -21 4 -42 9 -47 12 -5 3 -17 7 -26 9
-65 13 -215 81 -543 248 -1620 820 -1774 899 -1787 909 -7 6 -13 7 -13 3 0 -4
-6 -3 -12 3 -7 5 -166 87 -353 182 -352 179 -417 216 -474 272 -79 77 -113
156 -110 251 3 99 50 171 154 237 44 28 212 107 265 125 14 5 67 27 85 35 11
5 137 57 280 115 143 58 269 110 280 115 11 5 45 19 75 31 30 11 69 27 85 34
17 8 68 30 115 48 184 75 366 150 395 163 70 32 226 87 295 104 71 19 189 22
246 7z"/>
</g>
</svg>
