<svg xmlns="http://www.w3.org/2000/svg" viewBox="0 0 163.398 163.398" height="174.292" width="174.292"><path style="fill:#4d2482;" d="M81.7 163.398C36.591 163.398 0 126.806 0 81.7 0 36.591 36.592 0 81.7 0c45.107 0 81.698 36.591 81.698 81.7 0 45.106-36.59 81.698-81.699 81.698zm0-6.215c41.631 0 75.483-33.852 75.483-75.484 0-41.633-33.852-75.483-75.484-75.483S6.216 40.066 6.216 81.699c0 41.632 33.851 75.484 75.483 75.484zm-41.344-15.945c-.83.027-1.651-.063-2.363-.547-.711-.484-1.114-1.257-1.357-2.107-1.321-4.612-2.81-9.2-4.217-13.833-1.033-3.407-2.488-6.897-3.054-10.667-.977-6.507 1.36-12.29 5.97-16.867.712-.709 1.41-1.321 2.126-1.97-1.811-.294-3.623-.52-5.488-1.092-4.5-1.375-8.356-4.134-10.545-8.481-1.541-3.06-2.55-6.306-3.618-9.412-1.611-4.69-3.088-9.41-4.639-14.084-.064-.191-.342-.566-.664-1.16a1.234 1.234 0 0 1 0-.002c-.924-1.714-.416-3.836 1.126-4.847 3.796-2.49 7.594-4.958 11.301-7.529 2.3-1.597 4.49-3.503 6.924-5.217 5.297-3.733 11.353-4.875 17.559-2.703 2.17.76 3.982 1.815 5.817 2.786-.351-1.599-.772-3.148-.847-5.005-.278-6.89 2.379-12.762 8.1-16.914 6.04-4.385 12.005-8.883 17.987-13.374a1.234 1.234 0 0 1 .002-.003c.558-.417 1.208-.753 1.96-.756.752-.004 1.42.333 1.998.773 5.73 4.365 11.36 8.825 17.219 12.886 6.801 4.713 9.415 11.403 8.481 19.322-.12 1.01-.353 2.008-.554 2.995 4.54-2.708 9.537-3.983 14.963-2.851 3.053.637 5.712 2.051 8.14 3.852 5.29 3.922 10.645 7.764 16.001 11.619.734.528 1.295.925 1.76 1.343.466.417.883.911 1.06 1.555.177.643.077 1.264-.088 1.853-.164.589-.406 1.214-.708 2.038-1.795 4.901-3.476 9.846-4.978 14.832-1.655 5.498-3.685 11.085-9.229 14.556a1.234 1.234 0 0 1 0 .002c-3.26 2.04-6.83 3-10.544 3.325.264.243.582.552.842.779a1.234 1.234 0 0 1 0 .003c6.514 5.672 7.933 14.33 5.379 21.72-2.315 6.703-4.068 13.655-6.192 20.545-.224.728-.652 1.122-1.118 1.485-.466.362-.95.69-1.745.703-7.758.106-15.534.214-23.316.078-7.562-.131-13.241-4.07-16.914-10.452-.594-1.031-.993-1.976-1.453-2.974-.962 1.89-1.88 3.814-3.1 5.71-2.522 3.918-6.326 6.658-10.965 7.36-3.983.603-7.972.365-11.79.446-5.096.108-10.176.117-15.229.28zm22.295-4.768c6.158-.001 10.387-2.868 13.374-8.167 2.35-4.166 3.053-8.834 3.199-13.747.033-1.15.506-1.907.75-2.705a1.234 1.234 0 0 1 2.008-.557c.23.206.367.314.51.435.143.119.402.312.565.732v.002c.18.469.209.84.249 1.072v.003c.657 3.75.865 7.484 1.955 10.742 1.237 3.7 3.006 6.745 5.53 8.82 2.524 2.076 5.83 3.255 10.459 3.101 2.84-.094 5.706-.23 8.591-.26 3.98-.043 7.955-.015 11.953-.01.038-.155.05-.259.103-.426a1.234 1.234 0 0 1 0-.002c2.15-6.842 4.446-13.61 6.387-20.45 1.295-4.561.583-8.81-2.234-12.75-2.774-3.885-6.685-6.274-11.155-8.18a1.234 1.234 0 0 1-.002 0c-.981-.419-1.371-1.105-1.644-1.347a1.234 1.234 0 0 1 .555-2.13c.347-.076.99-.436 1.982-.356 3.29.266 6.442.897 9.431.82 7.407-.189 13.24-4.411 15.298-11.76 1.806-6.442 4.17-12.67 6.184-18.935-.059.183-.014-.01-.06-.164-.048-.156-.209-.277-.008-.13-5.917-4.358-11.822-8.714-17.83-12.907a1.234 1.234 0 0 1 0-.002c-4.436-3.097-9.12-3.305-14.175-1.394-3.475 1.313-6.327 3.696-9.062 6.43-.56.558-1.133.955-1.585 1.328a1.234 1.234 0 0 1-1.455.088l-.468-.302a1.234 1.234 0 0 1-.503-1.426c.159-.48.275-1.182.678-1.948 1.91-3.624 3.407-7.247 3.687-11.219a1.234 1.234 0 0 1 0-.002c.365-5.184-1.099-9.544-5.037-12.703-5.868-4.702-12.128-8.991-18.252-13.52-.253-.187-.263-.145-.202-.147.06-.002-.018-.015-.303.198a1.234 1.234 0 0 1 0 .002c-5.623 4.185-11.27 8.355-16.975 12.445-4.637 3.322-6.635 7.583-6.426 13.225.183 4.927 2.237 9.266 4.856 13.586.341.563.332 1.072.325 1.443-.007.37-.032.659-.025.79a1.234 1.234 0 0 1-1.755 1.187c-.292-.136-.98-.236-1.694-.869a1.234 1.234 0 0 1-.003 0c-2.752-2.448-5.17-5.124-7.925-7.082-4.645-3.304-9.636-4.105-14.865-1.717-2.502 1.144-4.829 3.078-7.337 4.874-2.052 1.467-4.015 3.225-6.24 4.775-2.262 1.577-4.617 2.876-6.768 4.331.252-.17.09-.078.047.051-.043.13.02.31-.064.054 1.495 4.57 3.12 9.117 4.646 13.718 1.015 3.057 1.479 6.148 2.725 8.596 3.003 5.896 7.795 8.804 14.438 8.633 3.479-.09 7.063-.887 10.789-1.31 1.126-.128 1.837.335 2.212.424a1.234 1.234 0 0 1 .554 2.104c-.245.228-.601 1.096-1.814 1.485a1.234 1.234 0 0 1 0 .002c-4.016 1.282-7.656 3.213-10.876 5.877-3.847 3.184-5.956 6.908-6.011 12.058-.04 3.72 1.681 7.036 2.783 10.925 1.341 4.733 2.705 9.459 4.146 14.15-.09-.291-.051-.106.078-.019s.343.11.163.107c1.904.024 3.917-.22 6.036-.205a1.234 1.234 0 0 1 .002 0c5.198.04 10.366.237 15.505.235zm55.376-3.394a1.234 1.234 0 0 1-.32-.044c-.404-.113-1.322-.038-2.29-.754-2.652-1.967-5.212-4.018-7.792-5.999-8.795-6.751-17.605-13.487-26.39-20.259-.245-.187-.255-.145-.185-.148.07-.004-.008-.015-.283.197-7.823 6.015-15.671 11.998-23.516 17.979-3.713 2.83-7.432 5.67-11.211 8.44a1.234 1.234 0 0 1-.002 0c-.555.406-1.097.45-1.507.48-.41.031-.744.031-.915.057a1.234 1.234 0 0 1-1.411-1.301c.024-.374-.086-1.03.173-1.873a1.234 1.234 0 0 1 0-.003c3.476-11.29 6.967-22.574 10.476-33.857.85-2.732 1.744-5.459 2.688-8.166a1.234 1.234 0 0 1 0-.003c.122-.35.095-.461.085-.493-.01-.032-.037-.12-.33-.327-7.104-5.03-14.18-10.095-21.276-15.122-4.278-3.032-8.607-6.015-12.89-9.08a1.234 1.234 0 0 1-.003 0c-.504-.362-.704-.805-.85-1.13-.145-.326-.242-.584-.303-.699a1.234 1.234 0 0 1 .601-1.713c.236-.102.747-.597 1.763-.65 1.3-.067 2.552-.032 3.781-.024a1.234 1.234 0 0 1 .447-.1c12.087-.407 24.172-.829 36.262-1.209 1.706-.053 2.328-.174 2.41-.234.083-.06.37-.584.913-2.183 1.759-5.184 3.56-10.348 5.35-15.512a1.234 1.234 0 0 1 0-.003c2.492-7.192 4.978-14.388 7.519-21.572.385-1.091 1.141-1.543 1.399-1.856a1.234 1.234 0 0 1 1.975.093c.274.405.87.95 1.218 1.912a1.234 1.234 0 0 1 .003.002c2.518 7.018 5.01 14.047 7.478 21.082 1.921 5.485 3.837 10.977 5.674 16.504.175.528.32.715.434.806.115.09.32.188.891.22 8.753.492 17.494 1.11 26.226 1.681 5.534.364 11.077.704 16.62 1.121 1.248.094 1.78.834 2.054.989a1.234 1.234 0 0 1 .398 1.794c-.21.292-.435 1.078-1.343 1.707a8354.175 8354.175 0 0 1-34.25 23.762c-.37.255-.467.4-.474.417-.007.017-.05.06.071.46 1.26 4.145 2.391 8.31 3.582 12.438 2.387 8.273 4.782 16.54 7.18 24.81.374 1.29.859 2.63 1.196 4.082.235 1.016-.051 1.748-.083 2.146a1.234 1.234 0 0 1-1.243 1.135zM47.98 125.77c6.172-4.681 12.345-9.358 18.503-14.053 4.215-3.212 8.396-6.495 12.67-9.682.542-.405 1.056-.51 1.602-.567.546-.056 1.11-.136 1.812.396a1.234 1.234 0 0 1 .002 0c9.95 7.55 19.84 15.173 29.746 22.766.485.37 1.015.732 1.521 1.094-.798-2.781-1.622-5.562-2.434-8.352-2.815-9.679-5.652-19.354-8.396-29.06a1.234 1.234 0 0 1-.002 0c-.206-.733-.045-1.301.156-1.841.202-.54.465-1.037.977-1.463 1.45-1.203 3.02-2.09 4.397-3.042 8.913-6.15 17.82-12.308 26.726-18.471-2.654-.29-5.298-.565-7.93-.738-10.2-.67-20.395-1.377-30.588-2.004a1.234 1.234 0 0 1-.003-.003c-.802-.05-1.57-.24-2.214-.705-.644-.466-1.073-1.168-1.321-1.936a285.057 285.057 0 0 0-1.865-5.613 9356.074 9356.074 0 0 0-8.819-25.376c-.383-1.097-.821-2.206-1.245-3.308-.026.07-.09.124-.114.198v.002c-3.92 11.393-7.854 22.78-11.71 34.187-.339 1.003-.828 1.879-1.63 2.473-.803.595-1.797.816-2.9.843-11.558.277-23.118.697-34.683 1.091-.595.02-1.231.089-1.841.137.018.013.028.033.046.046l.003.003c9.84 7.014 19.664 14.045 29.538 20.998.795.56 1.453 1.216 1.76 2.097.308.882.2 1.82-.102 2.764-3.027 9.474-5.942 18.991-8.914 28.496-.874 2.796-1.81 5.7-2.749 8.623zm33.886-26.416c-.617.04-1.244-.004-1.882-.337-9.4-4.917-17.087-11.767-19.448-22.956a8.83 8.83 0 0 1-.154-1.126 12.16 12.16 0 0 1-.037-.564 1.234 1.234 0 0 1-.005-.124c-.004-6.745 4.003-11.82 10.032-12.527 4.33-.507 7.885 1.616 10.75 4.228l.002.003c.444.402.582.405.513.403-.07-.003.097-.005.598-.386 1.859-1.414 3.945-2.897 6.338-3.687 7.869-2.6 15.423 4.345 14.392 12.722-.938 7.622-5.173 13.343-10.6 18.003-2.71 2.326-5.812 4.055-8.707 5.828-.574.352-1.174.481-1.792.52zm-.237-4.565c.72.006 1.476-.223 2.405-.813 3.94-2.502 7.423-5.364 10.164-9.05 2.555-3.438 4.438-6.817 4.153-10.997a1.234 1.234 0 0 1-.003-.083c0-.518-.055-1.14.012-1.86.276-3.019-3.462-6.565-7.627-5.796-2.505.464-4.35 1.782-6.313 3.494-.81.706-1.695 1.217-2.712 1.215-1.018-.001-1.896-.51-2.713-1.208-2.08-1.777-4.036-3.16-6.65-3.489-4.013-.502-6.53 1.713-7.254 4.636-.845 3.414-.192 6.688 1.436 9.927 2.844 5.656 7.373 9.705 12.724 13.184.91.59 1.659.833 2.378.84z"/></svg>